<?xml version="1.0" encoding="UTF-8" standalone="no" ?>
<!DOCTYPE svg PUBLIC "-//W3C//DTD SVG 1.1//EN" "http://www.w3.org/Graphics/SVG/1.1/DTD/svg11.dtd">
<svg xmlns="http://www.w3.org/2000/svg" xmlns:xlink="http://www.w3.org/1999/xlink" version="1.1" width="98" height="83" viewBox="0 0 98 83" xml:space="preserve">
<desc>Created with Fabric.js 5.2.4</desc>
<defs>
</defs>
<g transform="matrix(1 0 0 1 49 41.5)" id="4c4b124f-42b8-4859-980b-174e1a48fb15"  >
<rect style="stroke: none; stroke-width: 1; stroke-dasharray: none; stroke-linecap: butt; stroke-dashoffset: 0; stroke-linejoin: miter; stroke-miterlimit: 4; fill: rgb(255,255,255); fill-rule: nonzero; opacity: 1; visibility: hidden;" vector-effect="non-scaling-stroke"  x="-49" y="-41.5" rx="0" ry="0" width="98" height="83" />
</g>
<g transform="matrix(Infinity NaN NaN Infinity 0 0)" id="bd0d374d-fef4-46f3-90e5-6b017fda470b"  >
</g>
<g transform="matrix(0.08 0 0 0.08 49 41.5)"  >
<g style="" vector-effect="non-scaling-stroke"   >
		<g transform="matrix(0.13 0 0 -0.13 -65.51 -2.94)"  >
<path style="stroke: none; stroke-width: 1; stroke-dasharray: none; stroke-linecap: butt; stroke-dashoffset: 0; stroke-linejoin: miter; stroke-miterlimit: 4; fill: rgb(0,0,0); fill-rule: nonzero; opacity: 1;" vector-effect="non-scaling-stroke"  transform=" translate(-2685, -2721.34)" d="M 278 5376 C 173 5338 77 5249 38 5152 L 15 5095 L 15 2720 L 15 345 L 38 288 C 69 212 143 132 222 89 L 285 55 L 2685 55 L 5085 55 L 5147 89 C 5224 130 5293 202 5328 278 L 5355 335 L 5355 2720 L 5355 5105 L 5328 5162 C 5293 5238 5219 5315 5145 5354 L 5085 5385 L 2700 5387 C 755 5389 308 5387 278 5376 z M 1329 4641 C 1413 4615 1466 4582 1531 4513 C 1594 4447 1620 4402 1645 4316 C 1668 4239 1661 4117 1631 4038 C 1535 3789 1244 3670 1007 3783 C 713 3922 649 4304 881 4530 C 1000 4645 1176 4689 1329 4641 z M 3867 3434 C 3912 3426 3987 3406 4034 3389 C 4319 3286 4471 3073 4543 2675 C 4565 2558 4565 2536 4565 1695 L 4565 835 L 4170 835 L 3775 835 L 3769 1615 C 3764 2325 3762 2400 3746 2455 C 3718 2548 3680 2617 3633 2661 C 3568 2721 3512 2742 3398 2748 C 3175 2759 3038 2690 2960 2525 C 2896 2388 2896 2390 2890 1575 L 2885 835 L 2490 835 L 2095 835 L 2092 2113 L 2090 3390 L 2475 3390 L 2860 3390 L 2860 3213 L 2860 3035 L 2887 3075 C 3022 3277 3244 3417 3477 3449 C 3561 3461 3757 3453 3867 3434 z M 1598 2113 L 1595 835 L 1200 835 L 805 835 L 802 2113 L 800 3390 L 1200 3390 L 1600 3390 L 1598 2113 z" stroke-linecap="round" />
</g>
		<g transform="matrix(0.13 0 0 -0.13 373.13 310.54)"  >
<path style="stroke: none; stroke-width: 1; stroke-dasharray: none; stroke-linecap: butt; stroke-dashoffset: 0; stroke-linejoin: miter; stroke-miterlimit: 4; fill: rgb(0,0,0); fill-rule: nonzero; opacity: 1;" vector-effect="non-scaling-stroke"  transform=" translate(-5974.8, -370.22)" d="M 5813 695 C 5770 674 5726 642 5704 617 C 5558 450 5590 192 5770 71 C 5843 23 5910 6 6005 12 C 6277 30 6428 339 6279 572 C 6242 629 6205 662 6136 697 C 6093 720 6069 725 5985 728 C 5886 732 5884 731 5813 695 z M 6103 667 C 6177 633 6234 579 6267 512 C 6291 464 6295 442 6295 375 C 6295 309 6290 285 6268 238 C 6151 -12 5802 -14 5680 235 C 5646 303 5645 432 5676 501 C 5753 667 5942 741 6103 667 z" stroke-linecap="round" />
</g>
		<g transform="matrix(0.13 0 0 -0.13 374.91 310.57)"  >
<path style="stroke: none; stroke-width: 1; stroke-dasharray: none; stroke-linecap: butt; stroke-dashoffset: 0; stroke-linejoin: miter; stroke-miterlimit: 4; fill: rgb(0,0,0); fill-rule: nonzero; opacity: 1;" vector-effect="non-scaling-stroke"  transform=" translate(-5988.16, -369.97)" d="M 5850 370 L 5850 180 L 5875 180 C 5900 180 5900 181 5900 265 L 5900 350 L 5934 350 C 5965 350 5971 344 6021 265 C 6068 191 6078 180 6103 180 C 6135 180 6137 174 6069 277 L 6021 348 L 6048 355 C 6113 371 6144 438 6116 503 C 6096 551 6071 560 5949 560 L 5850 560 L 5850 370 z M 6052 503 C 6062 494 6070 473 6070 454 C 6070 407 6041 390 5963 390 L 5900 390 L 5900 455 L 5900 520 L 5967 520 C 6015 520 6039 515 6052 503 z" stroke-linecap="round" />
</g>
</g>
</g>
</svg>